<svg width="1440" height="933" viewBox="0 0 1440 933" fill="none" xmlns="http://www.w3.org/2000/svg">
<g filter="url(#filter0_f_541_3082)">
<path d="M-22.8683 262.613C44.5276 181.837 180.369 220.899 193.743 225.872C193.743 225.872 316.454 166.745 237.954 288.155C159.453 409.565 396.304 372.353 396.304 372.353L256.445 558.642C256.445 558.642 176.442 345.389 22.6907 446.48C-36.2175 485.212 -62.4004 540.464 -72.2873 593.893C-23.0068 618.617 51.148 638.578 158.771 650.8C688.115 710.918 -61.8812 761.204 -61.8812 761.204C-61.8812 761.204 -88.2051 679.913 -72.2873 593.893C-265.392 497.009 -76.5615 326.966 -22.8683 262.613Z" fill="#9747FF"/>
</g>
<g filter="url(#filter1_f_541_3082)">
<path d="M1205.5 538C1147.13 450.477 1296.44 359.917 1305 348.5C1305 348.5 1171.5 213 1366.5 225C1561.5 237 1485 98 1485 98L1636.19 249C1636.19 249 1409 265.294 1462.38 441.39C1483.08 509.661 1529.49 550.591 1578.57 575.119C1617.81 528.277 1657.67 461.455 1696.89 368.785C1904.54 -121.825 1740.24 611.679 1740.24 611.679C1740.24 611.679 1656.08 613.855 1578.57 575.119C1410.06 776.266 1252.84 608.991 1205.5 538Z" fill="#1CDAE6"/>
</g>
<defs>
<filter id="filter0_f_541_3082" x="-250.29" y="118.477" width="739.594" height="735.728" filterUnits="userSpaceOnUse" color-interpolation-filters="sRGB">
<feFlood flood-opacity="0" result="BackgroundImageFix"/>
<feBlend mode="normal" in="SourceGraphic" in2="BackgroundImageFix" result="shape"/>
<feGaussianBlur stdDeviation="46.5" result="effect1_foregroundBlur_541_3082"/>
</filter>
<filter id="filter1_f_541_3082" x="1099" y="5" width="795.931" height="758.853" filterUnits="userSpaceOnUse" color-interpolation-filters="sRGB">
<feFlood flood-opacity="0" result="BackgroundImageFix"/>
<feBlend mode="normal" in="SourceGraphic" in2="BackgroundImageFix" result="shape"/>
<feGaussianBlur stdDeviation="46.5" result="effect1_foregroundBlur_541_3082"/>
</filter>
</defs>
</svg>
